<svg xmlns="http://www.w3.org/2000/svg" viewBox="0 0 64 64" width="64" height="64"><defs>
<linearGradient id="sky" x1="0" y1="0" x2="0" y2="1"><stop offset="0" stop-color="#7ec8ff"/><stop offset="1" stop-color="#d9f1ff"/></linearGradient>
<linearGradient id="night" x1="0" y1="0" x2="0" y2="1"><stop offset="0" stop-color="#1b1f4b"/><stop offset="1" stop-color="#4a3f8c"/></linearGradient>
<linearGradient id="dusk" x1="0" y1="0" x2="0" y2="1"><stop offset="0" stop-color="#5a3a8a"/><stop offset=".55" stop-color="#ff8a5b"/><stop offset="1" stop-color="#ffd27a"/></linearGradient>
<linearGradient id="water" x1="0" y1="0" x2="0" y2="1"><stop offset="0" stop-color="#3aa0e8"/><stop offset="1" stop-color="#1c6fb8"/></linearGradient>
</defs><rect width="64" height="64" rx="8" fill="url(#sky)"/><circle cx="50" cy="13" r="6" fill="#ffd54a"/><path d="M0 64 L32 6 L64 64Z" fill="#6d7f95"/><path d="M32 6 L42 26 L36 22 L32 28 L28 22 L22 26Z" fill="#fff"/><path d="M0 64 L32 6 L64 64 L48 64 L32 22 L16 64Z" fill="#5a6a80" opacity=".6"/><path d="M30 8 L34 4 L38 8" stroke="#e63946" stroke-width="2" fill="none"/></svg>