<svg xmlns="http://www.w3.org/2000/svg" viewBox="0 0 64 64" width="64" height="64"><rect width="64" height="64" rx="8" fill="#fff8e1"/><rect x="0" y="46" width="64" height="18" fill="#c8a165"/><ellipse cx="34" cy="36" rx="16" ry="8" fill="#e6a23c"/><circle cx="52" cy="30" r="6" fill="#e6a23c"/><path d="M18 36 Q6 30 4 40" stroke="#e6a23c" stroke-width="4" fill="none"/><circle cx="28" cy="34" r="1.5" fill="#5a2d1a"/><circle cx="36" cy="38" r="1.5" fill="#5a2d1a"/><circle cx="40" cy="32" r="1.5" fill="#5a2d1a"/><circle cx="32" cy="40" r="1.5" fill="#5a2d1a"/><circle cx="44" cy="38" r="1.5" fill="#5a2d1a"/><path d="M24 44 L18 52 M32 44 L28 52 M40 44 L44 52 M46 42 L52 50" stroke="#e6a23c" stroke-width="3" stroke-linecap="round"/><path d="M2 20 L14 20 M4 26 L12 26 M6 14 L16 14" stroke="#999" stroke-width="2" stroke-linecap="round"/></svg>