<svg xmlns="http://www.w3.org/2000/svg" viewBox="0 0 64 64" width="64" height="64"><rect width="64" height="64" rx="8" fill="#ffe08a"/><circle cx="50" cy="12" r="8" fill="#ff8f00"/><line x1="50" y1="12" x2="37" y2="12" stroke="#ff8f00" stroke-width="2"/><line x1="50" y1="12" x2="50" y2="25" stroke="#ff8f00" stroke-width="2"/><line x1="50" y1="12" x2="40.9" y2="21.1" stroke="#ff8f00" stroke-width="2"/><line x1="50" y1="12" x2="40.9" y2="2.9000000000000004" stroke="#ff8f00" stroke-width="2"/><line x1="50" y1="12" x2="50" y2="-1" stroke="#ff8f00" stroke-width="2"/><line x1="50" y1="12" x2="59.1" y2="21.1" stroke="#ff8f00" stroke-width="2"/><line x1="50" y1="12" x2="63" y2="12" stroke="#ff8f00" stroke-width="2"/><line x1="50" y1="12" x2="59.1" y2="2.9000000000000004" stroke="#ff8f00" stroke-width="2"/><rect x="0" y="46" width="64" height="18" fill="#4d96ff"/><rect x="0" y="40" width="64" height="8" fill="#f4d58d"/><path d="M14 14 L14 42" stroke="#8d5524" stroke-width="2"/><path d="M14 14 Q0 22 14 30 Q28 22 14 14Z" fill="#e63946"/><path d="M14 14 Q6 22 14 30" fill="#fff"/></svg>