<svg xmlns="http://www.w3.org/2000/svg" viewBox="0 0 64 64" width="64" height="64"><rect width="64" height="64" rx="8" fill="#ede7f6"/><rect x="4" y="30" width="20" height="26" rx="2" fill="#222"/><circle cx="14" cy="42" r="7" fill="#555"/><circle cx="14" cy="42" r="3" fill="#999"/><circle cx="44" cy="22" r="7" fill="#f5c6a5"/><path d="M37 20 Q44 11 51 20" fill="#5a2d1a"/><circle cx="41.5" cy="21" r="1" fill="#222"/><circle cx="46.5" cy="21" r="1" fill="#222"/><ellipse cx="44" cy="25" rx="2" ry="3" fill="#222"/><rect x="36" y="29" width="16" height="16" rx="4" fill="#9c27b0"/><path d="M38 12 L36 6 L34 14" stroke="#8d5524" stroke-width="3" fill="none"/><circle cx="30" cy="16" r="3" fill="#e63946"/><rect x="32" y="4" width="2" height="12" fill="#e63946"/><path d="M34 4 Q40 6 38 11" stroke="#e63946" stroke-width="2" fill="none"/><circle cx="54" cy="12" r="3" fill="#4d96ff"/><rect x="56" y="0" width="2" height="12" fill="#4d96ff"/><path d="M58 0 Q64 2 62 7" stroke="#4d96ff" stroke-width="2" fill="none"/><path d="M26 34 Q30 40 26 46 M30 30 Q36 40 30 50" stroke="#999" stroke-width="1.5" fill="none"/></svg>