<svg xmlns="http://www.w3.org/2000/svg" viewBox="0 0 64 64" width="64" height="64"><rect width="64" height="64" rx="8" fill="#cfe8ff"/><rect x="0" y="46" width="64" height="18" fill="#c8ccd2"/><path d="M6 30 L30 22 L34 12 L38 12 L37 22 L56 26 L56 30 L37 30 L36 40 L32 40 L30 30Z" fill="#fff" stroke="#7c8a99"/><circle cx="14" cy="26" r="5" fill="#f5c6a5"/><path d="M9 25 A5 5 0 0 1 19 25Z" fill="#5a2d1a"/><rect x="9" y="31" width="10" height="13" rx="3" fill="#e63946"/><rect x="10" y="44" width="3" height="9" fill="#2b3a67"/><rect x="15" y="44" width="3" height="9" fill="#2b3a67"/><rect x="20" y="38" width="8" height="10" rx="1" fill="#8d5524"/><circle cx="22" cy="49" r="1.5" fill="#222"/><circle cx="26" cy="49" r="1.5" fill="#222"/></svg>