<svg xmlns="http://www.w3.org/2000/svg" viewBox="0 0 64 64" width="64" height="64"><rect width="64" height="64" rx="8" fill="#e8f5e9"/><rect x="0" y="46" width="64" height="18" fill="#a8b5a0"/><circle cx="24" cy="14" r="5" fill="#f5c6a5"/><path d="M19 13 A5 5 0 0 1 29 13Z" fill="#5a2d1a"/><rect x="19" y="19" width="10" height="13" rx="3" fill="#4d96ff"/><rect x="20" y="32" width="3" height="9" fill="#2b3a67"/><rect x="25" y="32" width="3" height="9" fill="#2b3a67"/><circle cx="42" cy="16" r="5" fill="#f5c6a5"/><path d="M37 15 A5 5 0 0 1 47 15Z" fill="#ddd"/><rect x="37" y="21" width="10" height="13" rx="3" fill="#9c27b0"/><rect x="38" y="34" width="3" height="9" fill="#2b3a67"/><rect x="43" y="34" width="3" height="9" fill="#2b3a67"/><line x1="29" y1="22" x2="37" y2="24" stroke="#f5c6a5" stroke-width="3" stroke-linecap="round"/><line x1="50" y1="26" x2="52" y2="46" stroke="#8d5524" stroke-width="2.5" stroke-linecap="round"/><rect x="20" y="36" width="12" height="8" fill="#8d5524"/><rect x="20" y="34" width="12" height="3" fill="#a8d5a8"/></svg>