<svg xmlns="http://www.w3.org/2000/svg" viewBox="0 0 64 64" width="64" height="64"><rect width="64" height="64" rx="8" fill="#fff8e1"/><circle cx="14" cy="18" r="5" fill="#f5c6a5"/><path d="M9 17 A5 5 0 0 1 19 17Z" fill="#5a2d1a"/><rect x="9" y="23" width="10" height="13" rx="3" fill="#e63946"/><rect x="10" y="36" width="3" height="9" fill="#2b3a67"/><rect x="15" y="36" width="3" height="9" fill="#2b3a67"/><circle cx="32" cy="16" r="5" fill="#f5c6a5"/><path d="M27 15 A5 5 0 0 1 37 15Z" fill="#5a2d1a"/><rect x="27" y="21" width="10" height="13" rx="3" fill="#4d96ff"/><rect x="28" y="34" width="3" height="9" fill="#2b3a67"/><rect x="33" y="34" width="3" height="9" fill="#2b3a67"/><circle cx="50" cy="18" r="5" fill="#f5c6a5"/><path d="M45 17 A5 5 0 0 1 55 17Z" fill="#5a2d1a"/><rect x="45" y="23" width="10" height="13" rx="3" fill="#4caf50"/><rect x="46" y="36" width="3" height="9" fill="#2b3a67"/><rect x="51" y="36" width="3" height="9" fill="#2b3a67"/><line x1="19" y1="26" x2="27" y2="26" stroke="#f5c6a5" stroke-width="3" stroke-linecap="round"/><line x1="37" y1="26" x2="45" y2="26" stroke="#f5c6a5" stroke-width="3" stroke-linecap="round"/><text x="32" y="10" font-family="sans-serif" font-size="8" font-weight="bold" fill="#333" text-anchor="middle">Hi!</text></svg>