<svg xmlns="http://www.w3.org/2000/svg" viewBox="0 0 64 64" width="64" height="64"><rect width="64" height="64" rx="8" fill="#fff4e0"/><g transform="translate(16 38) scale(1.0)"><path d="M-14 22 Q-14 4 0 4 Q14 4 14 22Z" fill="#ffb703"/><circle cx="0" cy="-8" r="9" fill="#c68642"/><path d="M-9 -10 Q0 -22 9 -10 Q6 -14 0 -14 Q-6 -14 -9 -10Z" fill="#3b2a1a"/><circle cx="-3" cy="-8" r="1.2" fill="#222"/><circle cx="3" cy="-8" r="1.2" fill="#222"/><path d="M-3 -4 Q0 -1 3 -4" stroke="#222" stroke-width="1.2" fill="none"/></g><g transform="translate(32 34) scale(1.0)"><path d="M-14 22 Q-14 4 0 4 Q14 4 14 22Z" fill="#219ebc"/><circle cx="0" cy="-8" r="9" fill="#ffdbac"/><path d="M-9 -10 Q0 -22 9 -10 Q6 -14 0 -14 Q-6 -14 -9 -10Z" fill="#3b2a1a"/><circle cx="-3" cy="-8" r="1.2" fill="#222"/><circle cx="3" cy="-8" r="1.2" fill="#222"/><path d="M-3 -4 Q0 -1 3 -4" stroke="#222" stroke-width="1.2" fill="none"/></g><g transform="translate(48 38) scale(1.0)"><path d="M-14 22 Q-14 4 0 4 Q14 4 14 22Z" fill="#fb8500"/><circle cx="0" cy="-8" r="9" fill="#f5c6a5"/><path d="M-9 -10 Q0 -22 9 -10 Q6 -14 0 -14 Q-6 -14 -9 -10Z" fill="#3b2a1a"/><circle cx="-3" cy="-8" r="1.2" fill="#222"/><circle cx="3" cy="-8" r="1.2" fill="#222"/><path d="M-3 -4 Q0 -1 3 -4" stroke="#222" stroke-width="1.2" fill="none"/></g><path transform="translate(10 12)" d="M0 -5 L1.5 -1.5 L5 -1 L2.5 1.5 L3 5 L0 3 L-3 5 L-2.5 1.5 L-5 -1 L-1.5 -1.5Z" fill="#ffd54a"/><path transform="translate(32 8)" d="M0 -5 L1.5 -1.5 L5 -1 L2.5 1.5 L3 5 L0 3 L-3 5 L-2.5 1.5 L-5 -1 L-1.5 -1.5Z" fill="#ffd54a"/><path transform="translate(54 12)" d="M0 -5 L1.5 -1.5 L5 -1 L2.5 1.5 L3 5 L0 3 L-3 5 L-2.5 1.5 L-5 -1 L-1.5 -1.5Z" fill="#ffd54a"/></svg>